<svg width="33" height="33" viewBox="0 0 33 33" fill="none" xmlns="http://www.w3.org/2000/svg">
<path d="M16.7335 7.95277C12.1318 7.95277 8.4201 11.6645 8.4201 16.2662C8.4201 20.8679 12.1318 24.5796 16.7335 24.5796C21.3352 24.5796 25.0469 20.8679 25.0469 16.2662C25.0469 11.6645 21.3352 7.95277 16.7335 7.95277ZM16.7335 21.671C13.7598 21.671 11.3287 19.2471 11.3287 16.2662C11.3287 13.2852 13.7525 10.8614 16.7335 10.8614C19.7145 10.8614 22.1383 13.2852 22.1383 16.2662C22.1383 19.2471 19.7072 21.671 16.7335 21.671ZM27.3261 7.61271C27.3261 8.69078 26.4578 9.55179 25.387 9.55179C24.3089 9.55179 23.4479 8.68354 23.4479 7.61271C23.4479 6.54188 24.3162 5.67364 25.387 5.67364C26.4578 5.67364 27.3261 6.54188 27.3261 7.61271ZM32.8322 9.58073C32.7092 6.98324 32.1159 4.6824 30.213 2.78674C28.3173 0.89108 26.0165 0.297782 23.419 0.167546C20.7419 0.0156033 12.7179 0.0156033 10.0408 0.167546C7.45056 0.290546 5.14972 0.883844 3.24682 2.7795C1.34393 4.67516 0.757865 6.976 0.627629 9.57349C0.475686 12.2506 0.475686 20.2746 0.627629 22.9516C0.750629 25.5491 1.34393 27.85 3.24682 29.7456C5.14972 31.6413 7.44333 32.2346 10.0408 32.3648C12.7179 32.5168 20.7419 32.5168 23.419 32.3648C26.0165 32.2418 28.3173 31.6485 30.213 29.7456C32.1086 27.85 32.7019 25.5491 32.8322 22.9516C32.9841 20.2746 32.9841 12.2578 32.8322 9.58073ZM29.3737 25.8241C28.8093 27.2422 27.7168 28.3347 26.2914 28.9063C24.157 29.7529 19.0922 29.5575 16.7335 29.5575C14.3748 29.5575 9.30281 29.7456 7.17562 28.9063C5.75749 28.342 4.66495 27.2494 4.09336 25.8241C3.24682 23.6896 3.44218 18.6249 3.44218 16.2662C3.44218 13.9075 3.25406 8.83549 4.09336 6.7083C4.65772 5.29017 5.75025 4.19763 7.17562 3.62604C9.31004 2.7795 14.3748 2.97486 16.7335 2.97486C19.0922 2.97486 24.1642 2.78674 26.2914 3.62604C27.7095 4.1904 28.8021 5.28293 29.3737 6.7083C30.2202 8.84272 30.0248 13.9075 30.0248 16.2662C30.0248 18.6249 30.2202 23.6969 29.3737 25.8241Z" fill="white"/>
</svg>
